<svg width="1024" height="1024" viewBox="0 0 1024 1024" fill="none" xmlns="http://www.w3.org/2000/svg" role="img" aria-labelledby="title desc">
  <title id="title">FolioTrace icon</title>
  <desc id="desc">A dark teal square icon with a timeline ring, portfolio folio layers, and event nodes.</desc>
  <defs>
    <linearGradient id="icon-bg" x1="128" y1="80" x2="896" y2="944" gradientUnits="userSpaceOnUse">
      <stop stop-color="#0B3D38"/>
      <stop offset="0.54" stop-color="#102033"/>
      <stop offset="1" stop-color="#07111F"/>
    </linearGradient>
    <linearGradient id="folio-fill" x1="285" y1="302" x2="720" y2="724" gradientUnits="userSpaceOnUse">
      <stop stop-color="#F8FAFC"/>
      <stop offset="1" stop-color="#D9EDE7"/>
    </linearGradient>
    <filter id="soft-shadow" x="190" y="228" width="650" height="576" color-interpolation-filters="sRGB" filterUnits="userSpaceOnUse">
      <feDropShadow dx="0" dy="28" stdDeviation="26" flood-color="#020617" flood-opacity="0.28"/>
    </filter>
  </defs>
  <rect width="1024" height="1024" rx="220" fill="url(#icon-bg)"/>
  <circle cx="512" cy="512" r="294" stroke="#D9EDE7" stroke-opacity="0.18" stroke-width="32"/>
  <path d="M512 218A294 294 0 0 1 806 512" stroke="#2F80ED" stroke-width="36" stroke-linecap="round"/>
  <path d="M806 512A294 294 0 0 1 512 806" stroke="#C7923E" stroke-width="36" stroke-linecap="round"/>
  <path d="M512 806A294 294 0 0 1 218 512" stroke="#14B8A6" stroke-width="36" stroke-linecap="round"/>
  <g filter="url(#soft-shadow)">
    <path d="M330 358c0-22.1 17.9-40 40-40h284c22.1 0 40 17.9 40 40v250c0 22.1-17.9 40-40 40H370c-22.1 0-40-17.9-40-40V358Z" fill="#0F766E"/>
    <path d="M292 410c0-22.1 17.9-40 40-40h284c22.1 0 40 17.9 40 40v250c0 22.1-17.9 40-40 40H332c-22.1 0-40-17.9-40-40V410Z" fill="#115E59"/>
    <path d="M248 466c0-22.1 17.9-40 40-40h292c22.1 0 40 17.9 40 40v248c0 22.1-17.9 40-40 40H288c-22.1 0-40-17.9-40-40V466Z" fill="url(#folio-fill)"/>
    <path d="M332 526h202" stroke="#0F766E" stroke-width="30" stroke-linecap="round"/>
    <path d="M332 600h236" stroke="#2563EB" stroke-opacity="0.82" stroke-width="30" stroke-linecap="round"/>
    <path d="M332 674h152" stroke="#C7923E" stroke-width="30" stroke-linecap="round"/>
  </g>
  <circle cx="512" cy="218" r="38" fill="#2F80ED" stroke="#F8FAFC" stroke-width="16"/>
  <circle cx="806" cy="512" r="38" fill="#C7923E" stroke="#F8FAFC" stroke-width="16"/>
  <circle cx="512" cy="806" r="38" fill="#14B8A6" stroke="#F8FAFC" stroke-width="16"/>
  <path d="M696 278 766 348" stroke="#F8FAFC" stroke-opacity="0.44" stroke-width="22" stroke-linecap="round"/>
  <path d="M258 668 328 738" stroke="#F8FAFC" stroke-opacity="0.32" stroke-width="22" stroke-linecap="round"/>
</svg>
