<svg width="1600" height="480" viewBox="0 0 1600 480" fill="none" xmlns="http://www.w3.org/2000/svg" role="img" aria-labelledby="title desc">
  <title id="title">foleo events of time banner</title>
  <desc id="desc">A textless foleo banner built from time rings and event points.</desc>
  <rect width="1600" height="480" fill="#F7F8F4"/>
  <rect y="360" width="1600" height="120" fill="#E9F1ED"/>
  <circle cx="318" cy="238" r="118" stroke="#17362F" stroke-width="26"/>
  <path d="M318 144v94l67 49" stroke="#17362F" stroke-width="26" stroke-linecap="round" stroke-linejoin="round"/>
  <path d="M244 300c38 39 112 39 150-17" stroke="#146C5C" stroke-width="20" stroke-linecap="round"/>
  <circle cx="318" cy="144" r="17" fill="#2F80ED"/>
  <circle cx="394" cy="283" r="17" fill="#C7923E"/>
  <circle cx="244" cy="300" r="13" fill="#146C5C"/>
  <path d="M520 238c132-88 246-88 342 0s210 88 342 0 246-88 342 0" stroke="#D9EDE7" stroke-width="34" stroke-linecap="round"/>
  <path d="M520 238c132-88 246-88 342 0s210 88 342 0 246-88 342 0" stroke="#2F80ED" stroke-width="10" stroke-linecap="round"/>
  <circle cx="520" cy="238" r="15" fill="#C7923E"/>
  <circle cx="862" cy="238" r="15" fill="#2F80ED"/>
  <circle cx="1204" cy="238" r="15" fill="#C7923E"/>
  <circle cx="1546" cy="238" r="15" fill="#2F80ED"/>
  <circle cx="690" cy="190" r="8" fill="#146C5C"/>
  <circle cx="1034" cy="286" r="8" fill="#146C5C"/>
  <circle cx="1374" cy="190" r="8" fill="#146C5C"/>
  <rect x="1010" y="88" width="262" height="304" rx="10" fill="#FFFFFF" fill-opacity="0.44" stroke="#D8DED8"/>
  <rect x="1060" y="58" width="262" height="304" rx="10" fill="#FFFFFF" fill-opacity="0.34" stroke="#D8DED8"/>
</svg>
